<svg xmlns="http://www.w3.org/2000/svg" xmlns:xlink="http://www.w3.org/1999/xlink" width="200" zoomAndPan="magnify" viewBox="0 0 150 149.999998" height="200" preserveAspectRatio="xMidYMid meet" version="1.0"><defs><g/><clipPath id="e0f643e6e3"><path d="M 11 10 L 62 10 L 62 62 L 11 62 Z M 11 10 " clip-rule="nonzero"/></clipPath><clipPath id="d167e471da"><rect x="0" width="62" y="0" height="62"/></clipPath><clipPath id="f2a326f96f"><path d="M 9.914062 9.023438 L 141.746094 9.023438 L 141.746094 140.855469 L 9.914062 140.855469 Z M 9.914062 9.023438 " clip-rule="nonzero"/></clipPath><clipPath id="903ec20123"><path d="M 0.914062 0.0234375 L 132.746094 0.0234375 L 132.746094 131.855469 L 0.914062 131.855469 Z M 0.914062 0.0234375 " clip-rule="nonzero"/></clipPath><clipPath id="aee4e15f7b"><rect x="0" width="133" y="0" height="132"/></clipPath><clipPath id="a3944aba82"><path d="M 7.320312 6.429688 L 143.582031 6.429688 L 143.582031 142.691406 L 7.320312 142.691406 Z M 7.320312 6.429688 " clip-rule="nonzero"/></clipPath><clipPath id="22e45c8cd2"><rect x="0" width="150" y="0" height="150"/></clipPath></defs><g transform="matrix(1, 0, 0, 1, 0, -0.000000000000007527)"><g clip-path="url(#22e45c8cd2)"><g transform="matrix(1, 0, 0, 1, 88, 88)"><g clip-path="url(#d167e471da)"><g clip-path="url(#e0f643e6e3)"><g fill="#0a0a0a" fill-opacity="1"><g transform="translate(42.166675, 74.958571)"><g><path d="M -0.546875 -60.828125 C 1.929688 -61.679688 3.671875 -61.609375 4.671875 -60.609375 C 5.117188 -60.160156 5.585938 -59.273438 6.078125 -57.953125 L 18.15625 -22.40625 C 18.46875 -21.46875 18.492188 -20.488281 18.234375 -19.46875 C 17.972656 -18.445312 17.503906 -17.597656 16.828125 -16.921875 L 16.40625 -16.5 C 15.695312 -15.789062 14.832031 -15.304688 13.8125 -15.046875 C 12.800781 -14.796875 11.820312 -14.820312 10.875 -15.125 L -24.671875 -27.203125 C -25.992188 -27.691406 -26.878906 -28.160156 -27.328125 -28.609375 C -28.328125 -29.609375 -28.394531 -31.351562 -27.53125 -33.84375 C -27.09375 -35.257812 -26.625 -36.210938 -26.125 -36.703125 C -25.632812 -37.203125 -25.203125 -37.523438 -24.828125 -37.671875 C -24.453125 -37.816406 -24.007812 -37.851562 -23.5 -37.78125 C -22.90625 -37.707031 -22.296875 -37.570312 -21.671875 -37.375 C -21.046875 -37.175781 -19.320312 -36.539062 -16.5 -35.46875 C -13.6875 -34.40625 -10.6875 -33.289062 -7.5 -32.125 C -4.3125 -30.957031 -1.300781 -29.847656 1.53125 -28.796875 C 4.363281 -27.742188 5.945312 -27.15625 6.28125 -27.03125 L -3.8125 -54.15625 C -4.125 -54.925781 -4.351562 -55.550781 -4.5 -56.03125 C -4.757812 -57.3125 -4.519531 -58.316406 -3.78125 -59.046875 C -3.050781 -59.785156 -1.972656 -60.378906 -0.546875 -60.828125 Z M -0.546875 -60.828125 "/></g></g></g></g></g></g><g clip-path="url(#f2a326f96f)"><g transform="matrix(1, 0, 0, 1, 9, 9)"><g clip-path="url(#aee4e15f7b)"><path fill="#000000" d="M 71.210938 118.121094 C 67.679688 114.589844 67.679688 108.867188 71.210938 105.335938 C 74.742188 101.808594 80.464844 101.808594 83.996094 105.335938 C 87.527344 108.867188 87.527344 114.589844 83.996094 118.121094 C 80.464844 121.652344 74.742188 121.652344 71.210938 118.121094 " fill-opacity="1" fill-rule="nonzero"/><g clip-path="url(#903ec20123)"><path fill="#000000" d="M 66.820312 -2.574219 C 104.65625 -2.574219 135.328125 28.09375 135.328125 65.929688 C 135.328125 67.59375 135.265625 69.246094 135.148438 70.878906 C 118.433594 54.824219 92.460938 54.058594 74.867188 68.589844 L 54.214844 47.9375 C 57.207031 42.871094 56.523438 36.238281 52.171875 31.882812 C 47.011719 26.726562 38.648438 26.726562 33.488281 31.882812 C 28.328125 37.042969 28.328125 45.40625 33.488281 50.566406 C 37.84375 54.917969 44.476562 55.601562 49.542969 52.609375 L 70.089844 73.152344 C 54.351562 90.507812 54.445312 117.097656 70.347656 134.347656 C 69.183594 134.410156 68.003906 134.4375 66.820312 134.4375 C 28.984375 134.4375 -1.683594 103.765625 -1.683594 65.929688 C -1.683594 28.09375 28.984375 -2.574219 66.820312 -2.574219 " fill-opacity="1" fill-rule="nonzero"/></g><path fill="#000000" d="M 118.242188 71.089844 C 121.773438 74.621094 121.773438 80.347656 118.242188 83.875 C 114.710938 87.40625 108.988281 87.40625 105.457031 83.875 C 101.925781 80.347656 101.925781 74.621094 105.457031 71.089844 C 108.988281 67.5625 114.710938 67.5625 118.242188 71.089844 " fill-opacity="1" fill-rule="nonzero"/></g></g></g><g clip-path="url(#a3944aba82)"><path stroke-linecap="butt" transform="matrix(2.162866, 0, 0, 2.162866, 7.320019, 6.429434)" fill="none" stroke-linejoin="miter" d="M 0.00013567 0.000117268 L 0.00013567 63.343793 L 63.343811 63.343793 L 63.343811 0.000117268 L 0.00013567 0.000117268 " stroke="#000000" stroke-width="6.241716" stroke-opacity="1" stroke-miterlimit="4"/></g></g></g></svg>