<svg xmlns="http://www.w3.org/2000/svg" xmlns:xlink="http://www.w3.org/1999/xlink" width="200" zoomAndPan="magnify" viewBox="0 0 150 149.999998" height="200" preserveAspectRatio="xMidYMid meet" version="1.0"><defs><g/><clipPath id="d45e867eae"><path d="M 5 5 L 61 5 L 61 62 L 5 62 Z M 5 5 " clip-rule="nonzero"/></clipPath><clipPath id="5c238d7a82"><rect x="0" width="61" y="0" height="62"/></clipPath><clipPath id="30ce380ec0"><path d="M 0.792969 0.394531 L 123.257812 0.394531 L 123.257812 122.855469 L 0.792969 122.855469 Z M 0.792969 0.394531 " clip-rule="nonzero"/></clipPath><clipPath id="6c0418be64"><path d="M 1.464844 0.394531 L 123.257812 0.394531 L 123.257812 122.855469 L 1.464844 122.855469 Z M 1.464844 0.394531 " clip-rule="nonzero"/></clipPath><clipPath id="6a6079c3ed"><rect x="0" width="124" y="0" height="123"/></clipPath><clipPath id="82e555b202"><rect x="0" width="144" y="0" height="144"/></clipPath></defs><g transform="matrix(1, 0, 0, 1, 6, 6)"><g clip-path="url(#82e555b202)"><g transform="matrix(1, 0, 0, 1, 83, 82)"><g clip-path="url(#5c238d7a82)"><g clip-path="url(#d45e867eae)"><g fill="#cc0000" fill-opacity="1"><g transform="translate(31.746267, 73.316248)"><g><path d="M 25.703125 -25.703125 L 15.28125 -15.28125 L -26.46875 -27.03125 L -15.09375 -38.40625 L 12.859375 -28.140625 L 2.578125 -56.078125 L 13.953125 -67.453125 Z M 25.703125 -25.703125 "/></g></g></g></g></g></g><g clip-path="url(#30ce380ec0)"><g transform="matrix(1, 0, 0, 1, 0.000000000000000888, -0.000000000000007105)"><g clip-path="url(#6a6079c3ed)"><path fill="#cc0000" d="M 66.304688 108.863281 C 63.132812 105.691406 63.132812 100.546875 66.304688 97.375 C 69.476562 94.203125 74.621094 94.203125 77.792969 97.375 C 80.96875 100.546875 80.96875 105.691406 77.792969 108.863281 C 74.621094 112.039062 69.476562 112.039062 66.304688 108.863281 " fill-opacity="1" fill-rule="nonzero"/><g clip-path="url(#6c0418be64)"><path fill="#cc0000" d="M 62.359375 0.386719 C 96.363281 0.386719 123.929688 27.953125 123.929688 61.957031 C 123.929688 63.453125 123.875 64.9375 123.769531 66.40625 C 108.746094 51.976562 85.402344 51.285156 69.589844 64.347656 L 51.027344 45.785156 C 53.71875 41.234375 53.105469 35.269531 49.195312 31.359375 C 44.554688 26.722656 37.039062 26.722656 32.402344 31.359375 C 27.765625 35.996094 27.765625 43.511719 32.402344 48.148438 C 36.316406 52.0625 42.277344 52.671875 46.832031 49.984375 L 65.296875 68.449219 C 51.152344 84.046875 51.234375 107.941406 65.53125 123.449219 C 64.480469 123.503906 63.421875 123.527344 62.359375 123.527344 C 28.355469 123.527344 0.789062 95.964844 0.789062 61.957031 C 0.789062 27.953125 28.355469 0.386719 62.359375 0.386719 " fill-opacity="1" fill-rule="nonzero"/></g><path fill="#cc0000" d="M 108.574219 66.597656 C 111.746094 69.769531 111.746094 74.914062 108.574219 78.085938 C 105.398438 81.257812 100.253906 81.257812 97.082031 78.085938 C 93.910156 74.914062 93.910156 69.769531 97.082031 66.597656 C 100.253906 63.425781 105.398438 63.425781 108.574219 66.597656 " fill-opacity="1" fill-rule="nonzero"/></g></g></g></g></g></svg>